# xmcd CD database file
#
# Track frame offsets:
#	150
#	28905
#	47392
#	65256
#	88500
#	110224
#	132802
#	153258
#	169667
#	183480
#	199532
#	215012
#	241889
#	275710
#
# Disc length: 4120 seconds
#
# Revision: 0
# Processed by: cddbd v1.5.1PL0 Copyright (c) Steve Scherf et al.
# Submitted via: CDex 1.51
#
DISCID=c310160e
DTITLE=Zeeza - She's Got The Blues
DYEAR=1900
DGENRE=Blues
TTITLE0=Shake Me Down
TTITLE1=Ain't Life A Bitch
TTITLE2=Je Chante Les Blues
TTITLE3=You're All Over Me
TTITLE4=All Over Me
TTITLE5=I'd Do You (with Harvey Mandel)
TTITLE6=Needs (with Harvey Mandel)
TTITLE7=Talk About Love (with Harvey Mandel)
TTITLE8=And So Will I (sugared version)
TTITLE9=Baby Come Back (acoustic version)
TTITLE10=Nobody's Pain But Mine
TTITLE11=My Complicated Blues (studio version)
TTITLE12=My Complicated Blues
TTITLE13=MP3 Data
EXTD=
EXTT0=
EXTT1=
EXTT2=
EXTT3=
EXTT4=
EXTT5=
EXTT6=
EXTT7=
EXTT8=
EXTT9=
EXTT10=
EXTT11=
EXTT12=
EXTT13=
PLAYORDER=
